<svg width="475" height="226" viewBox="0 0 475 226" fill="none" xmlns="http://www.w3.org/2000/svg">
<path fill-rule="evenodd" clip-rule="evenodd" d="M143.194 98.5465C160.051 98.5465 173.717 84.8808 173.717 68.0233C173.717 51.1657 160.051 37.5 143.194 37.5C126.336 37.5 112.67 51.1657 112.67 68.0233C112.67 84.8808 126.336 98.5465 143.194 98.5465ZM143.194 136.047C180.762 136.047 211.217 105.591 211.217 68.0233C211.217 30.455 180.762 0 143.194 0C105.625 0 75.1704 30.455 75.1704 68.0233C75.1704 105.591 105.625 136.047 143.194 136.047Z" fill="black"/>
<path d="M37 0H0V225H37V0Z" fill="black"/>
<path d="M275 0H238V225H275V0Z" fill="black"/>
<path d="M298 103L246 103L366 225.099H418.262L298 103Z" fill="black"/>
<path d="M298.05 122.099L247.05 122.099L364.05 5.3948e-06L416.312 0L298.05 122.099Z" fill="black"/>
<path d="M475 0H438V225H475V0Z" fill="black"/>
<path d="M171 225L171 190L0 190L-1.5299e-06 225L171 225Z" fill="black"/>
</svg>
