<svg id="mercator-logo" xmlns="http://www.w3.org/2000/svg" viewBox="0 0 283.4643 73.5708" fill="#111">
<polygon points="0 40.2866 7.1054 40.2866 16.9692 54.2641 26.8789 40.2866 33.8911 40.2866 33.8911 73.0092 27.1596 73.0092 27.1596 50.3842 16.9223 64.5014 6.7314 50.3842 6.7314 73.0092 0 73.0092 0 40.2866"></polygon><polygon points="39.5234 40.2866 63.3642 40.2866 63.3642 46.4575 46.5825 46.4575 46.5825 53.6567 61.5415 53.6567 61.5415 59.1254 46.5825 59.1254 46.5825 66.8393 63.5517 66.8393 63.5517 73.0092 39.5234 73.0092 39.5234 40.2866"></polygon><path d="m68.5527,40.2866h14.3975c9.3496,0,12.5747,5.1426,12.5747,10.3789,0,3.832-1.9165,7.292-5.9834,9.0215l6.2641,13.3222h-7.6196l-5.0488-12.2011h-7.4795v12.2011h-7.105v-32.7226Zm14.3042,15.334c3.7397,0,5.563-2.1045,5.563-4.8623,0-2.8516-1.8701-4.8145-5.5161-4.8145h-7.2461v9.6768h7.1992Z"></path><path d="m115.2988,39.726c4.5342,0,8.4609,1.4483,11.874,4.1602l-3.834,4.8623c-2.29-1.8233-4.7207-3.0391-7.8999-3.0391-6.0771,0-10.0503,4.2539-10.0503,10.751,0,6.7324,3.8799,11.127,10.0503,11.127,3.273,0,5.8902-1.2627,8.0874-3.4131l4.2071,4.4873c-3.5059,3.2724-7.5733,4.9092-12.6685,4.9092-10.0034,0-16.8286-7.1524-16.8286-17.1104,0-9.6758,7.0586-16.7344,17.0625-16.7344Z"></path><path d="m140.6211,40.2866h8.0405l11.8262,32.7226h-7.5723l-2.0566-6.123h-12.4351l-2.0107,6.123h-7.6202l11.8282-32.7226Zm-.4219,21.1299h8.8354l-4.3945-13.2764h-.0937l-4.3472,13.2764Z"></path><polygon points="169.4624 46.5512 158.6655 46.5512 158.6655 40.2866 187.3667 40.2866 187.3667 46.5512 176.521 46.5512 176.521 73.0092 169.4624 73.0092 169.4624 46.5512"></polygon><path d="m205.0268,39.726c9.9571,0,16.9688,7.0117,16.9688,16.8291,0,9.9092-7.0117,17.0157-16.9688,17.0157-9.9101,0-16.9687-7.1065-16.9687-17.0157,0-9.8174,7.0586-16.8291,16.9687-16.8291Zm0,27.8614c5.75,0,9.8164-4.3477,9.8164-11.0323,0-6.5439-4.0195-10.8916-9.8164-10.8916-5.75,0-9.7695,4.3477-9.7695,10.8916,0,6.6846,4.0664,11.0323,9.7695,11.0323Z"></path><path d="m225.6889,40.2866h14.3985c9.3496,0,12.5742,5.1426,12.5742,10.3789,0,3.832-1.916,7.292-5.9824,9.0215l6.2636,13.3222h-7.6211l-5.0488-12.2011h-7.4785v12.2011h-7.1055v-32.7226Zm14.3047,15.334c3.7383,0,5.5625-2.1045,5.5625-4.8623,0-2.8516-1.8691-4.8145-5.5156-4.8145h-7.2461v9.6768h7.1992Z"></path><path d="m63.0576,28.4692c2.3369,1.5889,6.0771,2.9912,10.2842,2.9912,5.8901,0,8.6484-2.7578,8.6484-6.4502,0-10.1445-19.7739-3.6475-19.7739-16.3623,0-4.8613,4.02-8.6479,10.8447-8.6479,4.3945,0,7.8071,1.0756,10.3779,2.3374l-1.0752,2.2436c-2.3374-1.1684-5.4223-2.1968-9.2089-2.1968-5.1421,0-8.1802,2.6646-8.1802,6.2173,0,10.2378,19.7734,3.5523,19.7734,16.4087,0,5.001-3.6929,8.834-11.4062,8.834-4.815,0-9.1153-1.542-11.6397-3.2715l1.3555-2.1035Z"></path><polygon points="99.7539 2.9453 87.4594 2.9453 87.4594 .561 114.6655 .561 114.6655 2.9453 102.3711 2.9453 102.3711 33.2836 99.7539 33.2836 99.7539 2.9453"></polygon><rect x="120.7422" y=".561" width="2.6171" height="32.7226"></rect><polygon points="131.6797 .561 153.1382 .561 153.1382 2.9453 134.2978 2.9453 134.2978 15.6606 151.0327 15.6606 151.0327 17.9506 134.2978 17.9506 134.2978 33.2836 131.6797 33.2836 131.6797 .561"></polygon><polygon points="169.7319 2.9453 157.437 2.9453 157.437 .561 184.644 .561 184.644 2.9453 172.3491 2.9453 172.3491 33.2836 169.7319 33.2836 169.7319 2.9453"></polygon><path d="m189.9272.561h2.6621v20.7559c0,6.6376,4.3946,10.1904,9.9121,10.1904s9.9571-3.5528,9.9571-10.1904V.561h2.664v20.7559c0,8.3203-5.5625,12.5273-12.6211,12.5273-7.0117,0-12.5742-4.207-12.5742-12.5273V.561Z"></path><polygon points="223.0698 .561 225.9663 .561 245.6479 29.4975 245.6479 .561 248.2182 .561 248.2182 33.2836 245.2729 33.2836 225.6401 4.3945 225.6401 33.2836 223.0698 33.2836 223.0698 .561"></polygon><path d="m272.3842,0c3.9278,0,7.5743.9819,10.5196,2.8515l-1.3574,1.9639c-2.5235-1.5899-5.7481-2.478-9.1153-2.478-8.1328,0-13.6015,5.75-13.6015,14.164,0,9.1631,5.1406,15.0059,13.6015,15.0059,3.4121,0,6.4981-.8408,8.5547-2.1504v-10.6582h-9.8633v-2.1035h12.3418v14.1172c-2.9453,1.9638-6.9199,3.1318-11.0801,3.1318-10.0039,0-16.2675-6.7773-16.2675-17.3428,0-9.7695,6.5449-16.5014,16.2675-16.5014Z"></path>
</svg>
